<svg xmlns="http://www.w3.org/2000/svg" viewBox="0 0 1040.84 580.67"><defs><style>.cls-1,.cls-3{fill:#1b75bc;}.cls-1,.cls-2{fill-rule:evenodd;}.cls-2,.cls-4{fill:#f7941d;}</style></defs><title>Element 1</title><g id="Ebene_2" data-name="Ebene 2"><g id="Layer_1" data-name="Layer 1"><path class="cls-1" d="M733.62,225.87c0,32.63-.52,65.27.14,97.88.88,44.21-19,74.89-58.45,93.69a353,353,0,0,1-96.75,30.48A359.33,359.33,0,0,1,471.5,449c-41-5.8-80.15-17.29-116.34-37.19-31.19-17.15-47.71-44.59-47.89-80.5-.35-69.37-.19-138.74-.07-208.11.06-37.37,16.57-65.72,49.46-83.08C418.73,7.34,485.24-4.84,555,1.71c45.92,4.3,89.87,16.64,130.4,38.95,31.56,17.37,47.87,44.92,48.2,81.16C733.88,156.5,733.62,191.19,733.62,225.87Zm-403.66,0h0c0,32.61.35,65.22-.11,97.83-.36,26.17,8.21,47.81,30.27,62.88,7.2,4.91,15.37,8.57,23.4,12.13,27,12,55,20.63,84.41,24.61,5.85.79,7.39-1.32,7.3-6.53-.17-8.51.1-17-.1-25.55-.15-6.1,2.38-8,8.56-7.94q35.81.5,71.61,0c6.34-.09,8.51,2.16,8.33,8.13-.23,7.93.15,15.87-.13,23.8-.23,6.15,1,9.09,8.43,8,31.74-4.59,61.73-14.59,90.83-27.72,31.57-14.24,47.29-37.93,46-72.92-.81-21.71-.15-43.48-.15-65.22,0-44.07-.13-88.14,0-132.21.12-31.62-14.79-53.15-43.12-66.61A338,338,0,0,0,569.07,29a343.49,343.49,0,0,0-111.85,1.68,313.7,313.7,0,0,0-86.59,29.05c-23.59,12-39.25,30.42-39.83,57.79C330,153.64,330,189.79,330,225.92Z"/><path class="cls-2" d="M682.25,271.1c0,20.86-.07,41.71,0,62.57.06,14.19-5.85,26.09-18,32.14-18.56,9.21-38.09,16.64-57.59,23.74-9.45,3.44-10.22,2-10.26-8.5,0-6.46-.08-12.92,0-19.38.07-5.44-2.44-7.14-7.74-6.49a574.82,574.82,0,0,1-136.23.19c-6-.7-8,1.59-7.88,7.22.17,7.05-.05,14.1.07,21.15.08,5.41-1.36,9.08-7.65,6.57-20.87-8.32-42.14-15.83-62.29-25.62-10.92-5.31-16.07-16.49-16-29.39q.18-64.77-.08-129.55c0-6.56,1.6-9.95,8.61-11.63,22.74-5.45,45.27-11.75,67.9-17.61,7.49-1.94,9.75,1.45,9.65,8.8-.33,24.38,0,48.77-.22,73.15-.06,6.52,2.21,9.24,9,10.08a540.55,540.55,0,0,0,132.7.21c8-1,10.48-3.75,10.35-11.53-.38-23.2-.15-46.41-.15-69.61,0-11.93.53-13.31,11.63-10.68,23.37,5.55,46.49,12.21,69.51,19.07,2.28.68,4.48,5.87,4.54,9C682.43,227,682.26,249.07,682.25,271.1Z"/><path class="cls-1" d="M359.38,166.05c0-20.33-1.59-39.47.55-58.18C361.42,94.8,372.58,87,384.55,81.12,434,56.65,486.34,48.44,541.07,51.27c41.81,2.17,80.85,13.63,118.09,32.07,15.4,7.63,23.17,20,22.86,37.49-.25,14.28,0,28.57,0,43.9-14.34-4.19-27-8.67-40-11.54-22.34-4.91-44.85-9.15-67.41-13-10.6-1.81-11-.85-11,9.75,0,27.92-.19,55.85.13,83.76.09,7-1.69,10.4-9.17,10.37q-33.45-.18-66.9.26c-7.85.09-10.58-2.9-10.43-11.06.5-27.91-.12-55.84.38-83.76.16-8.77-2.91-10.51-10.88-9.36C430.56,145.38,395,152.69,359.38,166.05Z"/><path class="cls-3" d="M48.83,484.41v14H31.35v82.25H17.62V498.42H0v-14Z"/><path class="cls-3" d="M57.29,484.41H71.43v38.7h35.93v-38.7h14.15v96.26H107.36v-44.8H71.43v44.8H57.29Z"/><path class="cls-3" d="M135.51,516.17a32.22,32.22,0,0,1,31.91-31.9h17.89v14.15h-6.24q-14,0-19.56,2.22-9.85,3.74-9.85,15.53v12.35h21.09v12.62H149.66v4.44q0,8.88,4.3,14.42,4.72,6.24,13.46,6.25h17.89v14.28l-17.89-.14a32.1,32.1,0,0,1-31.91-31.9Z"/><path class="cls-3" d="M245.09,580.53V555q0-9.28-7.63-9.29h-28v34.81H195.3V484l31.9.14a31,31,0,0,1,22.68,9.3A30.65,30.65,0,0,1,259.24,516q0,14.41-9.43,22.6,9.44.57,9.43,16.09v25.8Zm-17.2-47.16a16.08,16.08,0,0,0,12.63-5.68,20.27,20.27,0,0,0,4.57-13.32,14.45,14.45,0,0,0-5.48-11.44,18.66,18.66,0,0,0-12.41-4.65H209.44v35.09Z"/><path class="cls-3" d="M319.85,580.53V545.86H284.48v34.67H270.34V516.31a31.83,31.83,0,0,1,63.66,0v64.22Zm0-46.88V516.31a17.15,17.15,0,0,0-5.2-12.48,16.82,16.82,0,0,0-12.41-5.27,17,17,0,0,0-12.56,5.27,17.19,17.19,0,0,0-5.2,12.48v17.34Z"/><path class="cls-3" d="M410.84,536.29q-7.48,9.44-18.31,9.57H368.26v34.67h-14V484.41l31.76.28a31.65,31.65,0,0,1,24.83,51.6Zm-24.27-2.64A15.74,15.74,0,0,0,399.05,528a19.58,19.58,0,0,0,4.86-13.24,14.47,14.47,0,0,0-5.48-11.45A18.72,18.72,0,0,0,386,498.7H368.26v34.95Z"/><path class="cls-3" d="M494.62,484.41l-27.18,49.1L467,580.67H453.29V533.51L425,484.41h16.92L459.81,519l18-34.54Z"/><path class="cls-4" d="M541.09,484.41h14.14v38.7h35.93v-38.7h14.15v96.26H591.16v-44.8H555.23v44.8H541.09Z"/><path class="cls-4" d="M666.61,580.53V545.86H631.24v34.67H617.1V516.31a31.83,31.83,0,0,1,63.66,0v64.22Zm0-46.88V516.31a17.15,17.15,0,0,0-5.2-12.48,17.41,17.41,0,0,0-25,0,17.16,17.16,0,0,0-5.21,12.48v17.34Z"/><path class="cls-4" d="M708,580.67H693.52V483.44q5.15.13,14.47.13a.38.38,0,0,1,.13.26l35,68.72V483.44H757.6v97.09c0,.09,0,.14-.13.14q-8.33-.13-14.3-.14c.1-.09,0-.14-.27-.14L708,511.87Z"/><path class="cls-4" d="M803.51,535.18h29v13.91a31.56,31.56,0,0,1-63.11,0V515a31.56,31.56,0,0,1,63.11,0h-14a17.1,17.1,0,0,0-5.11-12.42,16.81,16.81,0,0,0-12.45-5.2,16.64,16.64,0,0,0-12.31,5.21A17.15,17.15,0,0,0,783.54,515v34.19a16.91,16.91,0,0,0,5.11,12.37,16.72,16.72,0,0,0,12.3,5.14q8.14,0,12.85-5.58a20.79,20.79,0,0,0,4.69-13.84h-15Z"/><path class="cls-4" d="M904.63,549a31.63,31.63,0,0,1-63.25,0V514.69a31.63,31.63,0,0,1,63.25,0Zm-14.15,0v-34.4a17.48,17.48,0,0,0-35,0V549a17.12,17.12,0,0,0,5.16,12.46,17.14,17.14,0,0,0,24.63,0A17.12,17.12,0,0,0,890.48,549Z"/><path class="cls-4" d="M930.85,484.41v64.08A17.35,17.35,0,0,0,936,561.11a16.9,16.9,0,0,0,12.51,5.27l17.68-.13V484.41h14l-.13,96.12-31.63-.14a32,32,0,0,1-31.9-31.9V484.41Z"/><path class="cls-4" d="M1040.84,484.41v14h-17.48v82.25h-13.73V498.42H992v-14Z"/></g></g></svg>