<svg xmlns="http://www.w3.org/2000/svg" viewBox="0 0 426.73 452.47"><defs><style>.cls-1{fill:#1b75bc;}.cls-1,.cls-2{fill-rule:evenodd;}.cls-2{fill:#f7941d;}</style></defs><title>Element 3-48</title><g id="Ebene_2" data-name="Ebene 2"><g id="Layer_1" data-name="Layer 1"><path class="cls-1" d="M426.57,225.87c0,32.63-.52,65.27.13,97.88.88,44.21-18.95,74.89-58.44,93.69a353.26,353.26,0,0,1-96.75,30.48A359.33,359.33,0,0,1,164.45,449c-41-5.8-80.16-17.29-116.35-37.19C16.91,394.63.39,367.19.21,331.28-.14,261.91,0,192.54.14,123.17.2,85.8,16.71,57.45,49.6,40.09,111.68,7.34,178.19-4.84,247.9,1.71,293.82,6,337.77,18.35,378.3,40.66c31.55,17.37,47.86,44.92,48.2,81.16C426.82,156.5,426.57,191.19,426.57,225.87Zm-403.66,0h0c0,32.61.34,65.22-.11,97.83-.37,26.17,8.21,47.81,30.26,62.88,7.2,4.91,15.37,8.57,23.4,12.13,27,12,55,20.63,84.42,24.61,5.84.79,7.38-1.32,7.29-6.53-.16-8.51.1-17-.1-25.55-.14-6.1,2.38-8,8.56-7.94q35.81.5,71.62,0c6.34-.09,8.5,2.16,8.33,8.13-.23,7.93.15,15.87-.14,23.8-.22,6.15,1,9.09,8.43,8,31.75-4.59,61.74-14.59,90.83-27.72,31.58-14.24,47.29-37.93,46-72.92-.81-21.71-.15-43.48-.15-65.22,0-44.07-.14-88.14,0-132.21.12-31.62-14.8-53.15-43.13-66.61A337.81,337.81,0,0,0,262,29a343.43,343.43,0,0,0-111.84,1.68A313.48,313.48,0,0,0,63.58,59.74c-23.6,12-39.25,30.42-39.84,57.79C23,153.64,22.91,189.79,22.91,225.92Z"/><path class="cls-2" d="M375.19,271.1c0,20.86-.06,41.71,0,62.57.05,14.19-5.86,26.09-18,32.14-18.56,9.21-38.08,16.64-57.59,23.74-9.45,3.44-10.21,2-10.26-8.5,0-6.46-.07-12.92,0-19.38.07-5.44-2.44-7.14-7.75-6.49a574.74,574.74,0,0,1-136.22.19c-6-.7-8,1.59-7.89,7.22.17,7.05,0,14.1.07,21.15.09,5.41-1.36,9.08-7.65,6.57C109,382,87.77,374.48,67.61,364.69c-10.91-5.31-16.07-16.49-16-29.39q.18-64.77-.08-129.55c0-6.56,1.6-9.95,8.61-11.63,22.73-5.45,45.26-11.75,67.9-17.61,7.48-1.94,9.74,1.45,9.64,8.8-.33,24.38,0,48.77-.21,73.15-.06,6.52,2.2,9.24,9,10.08a540.47,540.47,0,0,0,132.69.21c7.95-1,10.48-3.75,10.35-11.53-.38-23.2-.15-46.41-.14-69.61,0-11.93.53-13.31,11.62-10.68,23.37,5.55,46.49,12.21,69.51,19.07,2.28.68,4.49,5.87,4.54,9C375.38,227,375.2,249.07,375.19,271.1Z"/><path class="cls-1" d="M52.33,166.05c0-20.33-1.59-39.47.54-58.18C54.36,94.8,65.53,87,77.5,81.12,127,56.65,179.28,48.44,234,51.27c41.82,2.17,80.85,13.63,118.1,32.07,15.4,7.63,23.16,20,22.86,37.49-.25,14.28-.05,28.57-.05,43.9-14.35-4.19-27-8.67-40-11.54-22.34-4.91-44.86-9.15-67.41-13-10.61-1.81-11.05-.85-11.05,9.75,0,27.92-.19,55.85.13,83.76.09,7-1.69,10.4-9.18,10.37q-33.43-.18-66.9.26c-7.84.09-10.57-2.9-10.43-11.06.51-27.91-.12-55.84.39-83.76.16-8.77-2.91-10.51-10.89-9.36C123.5,145.38,88,152.69,52.33,166.05Z"/></g></g></svg>